<svg id="Layer_1" data-name="Layer 1" xmlns="http://www.w3.org/2000/svg" viewBox="0 0 147.1 147.1"><title>Icons</title><path d="M73.91,95.07H28.25l-5-16.49S15.93,69.49,18.12,61,26.67,50.56,33.62,52s22.75,6.11,40.29,5.64" style="fill:#caece8;stroke:#003359;stroke-linecap:round;stroke-linejoin:round;stroke-width:4px"/><path d="M73.79,95.07h45.1l5-16.49s7.21-9.09,5.05-17.56S120.46,50.56,113.59,52s-22.48,6.11-39.8,5.64" style="fill:#caece8;stroke:#003359;stroke-linecap:round;stroke-linejoin:round;stroke-width:4px"/><path d="M88.83,74.25S78,72.83,76.34,82.3C74.09,95.24,69.05,104.64,88.58,104" style="fill:#fff;stroke:#003359;stroke-linecap:round;stroke-linejoin:round;stroke-width:4px"/><path d="M88.51,74.25s8.49-.67,9.81,8C100.24,95,104,104.64,88.51,104" style="fill:#fff;stroke:#003359;stroke-linecap:round;stroke-linejoin:round;stroke-width:4px"/><path d="M60.92,74.25s-10.84-1.42-12.49,8c-2.25,12.94-7.3,22.34,12.24,21.67" style="fill:#fff;stroke:#003359;stroke-linecap:round;stroke-linejoin:round;stroke-width:4px"/><path d="M60.6,74.25s8.49-.67,9.81,8C72.32,95,76.12,104.64,60.6,104" style="fill:#fff;stroke:#003359;stroke-linecap:round;stroke-linejoin:round;stroke-width:4px"/><path d="M36,75s-9.56-1.25-11,7.09c-2,11.39-6.42,19.68,10.78,19.08" style="fill:#fff;stroke:#003359;stroke-linecap:round;stroke-linejoin:round;stroke-width:4px"/><path d="M35.66,75s7.48-.6,8.64,7.09c1.69,11.14,5,19.68-8.64,19.08" style="fill:#fff;stroke:#003359;stroke-linecap:round;stroke-linejoin:round;stroke-width:4px"/><path d="M113.46,75s-9.56-1.25-11,7.09c-2,11.39-6.42,19.68,10.78,19.08" style="fill:#fff;stroke:#003359;stroke-linecap:round;stroke-linejoin:round;stroke-width:4px"/><path d="M113.17,75s7.48-.6,8.64,7.09c1.69,11.14,5,19.68-8.64,19.08" style="fill:#fff;stroke:#003359;stroke-linecap:round;stroke-linejoin:round;stroke-width:4px"/></svg>