<svg id="Layer_1" data-name="Layer 1" xmlns="http://www.w3.org/2000/svg" viewBox="0 0 147.1 147.1"><title>Icons</title><g id="Filled_Icons" data-name="Filled Icons"><path d="M107.25,75.38c2.84-5.81,3.28-14.13,3.28-22.11,0-13.9-9-24.79-20.41-24.79-6.09,0-9.6,4.63-15.59,4.63S65,28.48,59,28.48c-11.45,0-20.42,10.89-20.42,24.79,0,7.63.41,15.57,2.92,21.33" style="fill:#fff;stroke:#003359;stroke-linecap:round;stroke-miterlimit:10;stroke-width:4px"/></g><path d="M107.6,74.63H41.19l2.55,2.79L72.78,91a8.79,8.79,0,0,1,7.77,0,9.06,9.06,0,0,0,7.58.35L103.48,80Z" style="fill:#caece8"/><path d="M61.14,38c-7.57,0-13.5,7.21-13.5,16.4" style="fill:none;stroke:#003359;stroke-linecap:round;stroke-miterlimit:10;stroke-width:3px"/><path d="M40.83,73s5.52,15.54,5.52,24.83S50,116.42,55.65,118s8.87-27.36,19.14-27.36" style="fill:#caece8;stroke:#003359;stroke-linecap:round;stroke-miterlimit:10;stroke-width:3px;stroke-dasharray:2,6"/><path d="M108.13,73s-4.95,15.54-4.95,24.83S100,116.42,94.87,118,86.93,90.51,77.74,90.51" style="fill:#caece8;stroke:#003359;stroke-linecap:round;stroke-miterlimit:10;stroke-width:3px;stroke-dasharray:2,6"/></svg>