<svg id="Layer_1" data-name="Layer 1" xmlns="http://www.w3.org/2000/svg" viewBox="0 0 147.1 147.1"><title>Icons</title><g id="Filled_Icons" data-name="Filled Icons"><path d="M95.83,101.88c8.73-3.82,9.74-16.64,9.74-28.69,0-13.9-9-24.79-20.41-24.79-6.09,0-9.6,4.63-15.59,4.63S60.07,48.4,54,48.4c-11.45,0-20.42,10.89-20.42,24.79,0,12.06,1,24.87,9.74,28.69,6,2.62,16.08-1.25,26.17-1.24S89.8,104.51,95.83,101.88Z" style="fill:#fff;stroke:#003359;stroke-linecap:round;stroke-miterlimit:10;stroke-width:3px;stroke-dasharray:2,6"/></g><g id="Filled_Icons-2" data-name="Filled Icons"><path d="M130.55,48.4c-11.44,0-20.41,10.89-20.41,24.79,0,12.06,1,24.87,9.73,28.69,2.64,1.15,6.06,1.05,9.93.57" style="fill:#fff;stroke:#003359;stroke-linecap:round;stroke-linejoin:round;stroke-width:4px"/></g><g id="Filled_Icons-3" data-name="Filled Icons"><path d="M13.32,48.4C22.13,48.4,29,59.29,29,73.19c0,12.06-.78,24.87-7.49,28.69-2,1.15-4.66,1.05-7.64.57" style="fill:#fff;stroke:#003359;stroke-linecap:round;stroke-linejoin:round;stroke-width:3.50815796852112px"/></g></svg>