<svg id="Layer_1" data-name="Layer 1" xmlns="http://www.w3.org/2000/svg" viewBox="0 0 147.1 147.1"><title>Icons</title><g id="Filled_Icons" data-name="Filled Icons"><path d="M99.69,99c8.72-3.82,9.74-16.64,9.74-28.69,0-13.9-9-24.79-20.42-24.79-6.08,0-9.6,4.63-15.58,4.63s-9.51-4.63-15.59-4.63c-11.45,0-20.41,10.89-20.41,24.79,0,12.06,1,24.87,9.73,28.69,6,2.62,16.08-1.25,26.17-1.24S93.65,101.66,99.69,99Z" style="fill:none;stroke:#003359;stroke-miterlimit:10;stroke-width:4px"/></g><g id="Filled_Icons-2" data-name="Filled Icons"><path d="M99.69,99c8.72-3.82,9.74-16.64,9.74-28.69,0-13.9-9-24.79-20.42-24.79-6.08,0-9.6,4.63-15.58,4.63s-9.51-4.63-15.59-4.63c-11.45,0-20.41,10.89-20.41,24.79,0,12.06,1,24.87,9.73,28.69,6,2.62,16.08-1.25,26.17-1.24S93.65,101.66,99.69,99Z" style="fill:#fff;stroke:#003359;stroke-miterlimit:10;stroke-width:4px"/></g><path d="M73.43,50.18c-6,0-9.51-4.63-15.59-4.63a17.72,17.72,0,0,0-4.39.55,20.94,20.94,0,0,0-.69,5.23A20.67,20.67,0,1,0,93.4,46.1,17.72,17.72,0,0,0,89,45.55C82.93,45.55,79.41,50.18,73.43,50.18Z" style="fill:#caece8;stroke:#003359;stroke-linecap:round;stroke-miterlimit:10;stroke-width:3px"/></svg>