<svg id="Layer_1" data-name="Layer 1" xmlns="http://www.w3.org/2000/svg" viewBox="0 0 147.1 147.1"><title>Icons</title><polygon points="108.25 66.45 90.19 48.26 78.9 59.63 96.96 77.83 108.25 66.45" style="fill:#f27967"/><g id="Filled_Icons" data-name="Filled Icons"><path d="M71,56.94c-3.48,1.37-6.45,3.62-10.63,3.62-6,0-9.51-4.63-15.59-4.63-11.45,0-20.41,10.89-20.41,24.79,0,12.06,1,24.88,9.73,28.69,6,2.62,16.08-1.24,26.17-1.24s20.32,3.88,26.36,1.24c6.54-2.86,8.75-10.79,9.44-19.66" style="fill:#fff;stroke:#003359;stroke-miterlimit:10;stroke-width:4px"/></g><g id="Filled_Icons-2" data-name="Filled Icons"><path d="M47,65.42c-7.58,0-13.51,7.21-13.51,16.4" style="fill:none;stroke:#003359;stroke-linecap:round;stroke-miterlimit:10;stroke-width:3px"/></g><g id="Outline_Icons" data-name="Outline Icons"><g id="Outline_Icons-2" data-name="Outline Icons"><ellipse cx="95.77" cy="63.96" rx="25.6" ry="25.79" style="fill:#5ac8c3;stroke:#003359;stroke-linejoin:round;stroke-width:4.01490020751953px"/></g></g><g id="Outline_Icons-3" data-name="Outline Icons"><line x1="98.09" y1="56.22" x2="118.14" y2="76.42" style="fill:none;stroke:#003359;stroke-linecap:round;stroke-linejoin:round;stroke-width:3px"/><polygon points="90.19 48.26 78.9 59.63 96.96 77.83 108.25 66.46 90.19 48.26" style="fill:#caece8;stroke:#003359;stroke-linecap:round;stroke-linejoin:round;stroke-width:3px"/><line x1="90.19" y1="57.36" x2="83.38" y2="64.15" style="fill:none;stroke:#003359;stroke-linecap:round;stroke-linejoin:round;stroke-width:3px"/><line x1="94.7" y1="61.9" x2="87.88" y2="68.68" style="fill:none;stroke:#003359;stroke-linecap:round;stroke-linejoin:round;stroke-width:3px"/><line x1="99.22" y1="66.45" x2="92.4" y2="73.23" style="fill:none;stroke:#003359;stroke-linecap:round;stroke-linejoin:round;stroke-width:3px"/></g></svg>