<?xml version="1.0" encoding="utf-8"?>
<!-- Generator: Adobe Illustrator 23.0.1, SVG Export Plug-In . SVG Version: 6.00 Build 0)  -->
<svg version="1.1" id="Layer_1" xmlns="http://www.w3.org/2000/svg" xmlns:xlink="http://www.w3.org/1999/xlink" x="0px" y="0px"
	 viewBox="0 0 150.4 78.8" style="enable-background:new 0 0 150.4 78.8;" xml:space="preserve">
<style type="text/css">
	.st0{fill:#FFFFFF;stroke:#003359;stroke-width:4;stroke-linecap:round;stroke-linejoin:round;}
	.st1{fill:#5AC8C3;stroke:#003359;stroke-width:4;stroke-linejoin:round;}
	.st2{fill:#CAECE8;stroke:#003359;stroke-width:3;stroke-linecap:round;stroke-linejoin:round;}
	.st3{fill:#CAECE8;stroke:#003359;stroke-width:4;stroke-linecap:round;stroke-linejoin:round;}
</style>
<title>Icons-24</title>
<path class="st0" d="M106.8,17.1V12c0-1.8,1.5-3.3,3.3-3.4l0,0c1.8,0,3.3,1.5,3.4,3.4v5.2"/>
<path class="st0" d="M97.2,62.6H143c2.2,0,4-1.8,4.1-4V39.8c0-2.2-1.9-4-4.1-4h-12.3l-9-18H97.2"/>
<path class="st0" d="M97.2,8.7c0-3.2-2.6-5.7-5.7-5.7H9.2c-3.2,0-5.7,2.6-5.8,5.7v53.9h93.7V8.7z"/>
<circle class="st1" cx="123.5" cy="62.8" r="13.7"/>
<polygon class="st2" points="63.1,28 55.6,28 55.6,20.4 46.3,20.4 46.3,28 38.8,28 38.8,37.3 46.3,37.3 46.3,44.8 55.6,44.8 
	55.6,37.3 63.1,37.3 "/>
<circle class="st2" cx="123.6" cy="62.7" r="6.8"/>
<circle class="st1" cx="26.5" cy="62.8" r="13.7"/>
<circle class="st2" cx="26.5" cy="62.8" r="6.8"/>
<polygon class="st3" points="104.6,24.5 117.3,24.5 123.1,35.7 104.6,35.7 "/>
</svg>
