<svg id="Layer_1" data-name="Layer 1" xmlns="http://www.w3.org/2000/svg" viewBox="0 0 147.1 147.1"><title>Icons</title><path d="M73.79,84s12.65.28,15.9-6.7.54-25.95,11-27.55S118,52.85,118,52.85s1.38,14.57-3.83,27.34-12.35,18.11-13,18.58-3.73,4.91-10,6.42a80.11,80.11,0,0,1-17.3,2.16,80.1,80.1,0,0,1-17.29-2.16c-6.29-1.51-9.32-6-10-6.42s-7.84-5.81-13-18.58S29.6,52.85,29.6,52.85s6.86-4.66,17.31-3.06,7.74,20.58,11,27.55S73.79,84,73.79,84Z" style="fill:#fff;stroke:#003359;stroke-miterlimit:10;stroke-width:4px"/><path d="M100.68,49.79c-10.45,1.6-7.75,20.58-11,27.55S73.79,84,73.79,84s-12.64.28-15.89-6.7-.55-25.95-11-27.55S29.6,52.85,29.6,52.85s4.06,18,12.22,25.55,16,13.32,23.24,14.2c0,2.24,3.91,4.05,8.73,4.05s8.74-1.81,8.74-4.05c7.19-.88,15.08-6.65,23.24-14.2S118,52.85,118,52.85,111.13,48.19,100.68,49.79Z" style="fill:#5ac8c3"/><path d="M117.69,53.15s-3.76,17.7-11.92,25.25-16,13.32-23.24,14.2c0,2.24-3.91,4.05-8.74,4.05s-8.73-1.81-8.73-4.05C57.87,91.72,50,86,41.82,78.4S29.9,53,29.9,53" style="fill:none;stroke:#003359;stroke-linecap:round;stroke-linejoin:round;stroke-width:3px"/><path d="M73.79,84s12.65.28,15.9-6.7.54-25.95,11-27.55S118,52.85,118,52.85s1.38,14.57-3.83,27.34-12.35,18.11-13,18.58-3.73,4.91-10,6.42a80.11,80.11,0,0,1-17.3,2.16,80.1,80.1,0,0,1-17.29-2.16c-6.29-1.51-9.32-6-10-6.42s-7.84-5.81-13-18.58S29.6,52.85,29.6,52.85s6.86-4.66,17.31-3.06,7.74,20.58,11,27.55S73.79,84,73.79,84Z" style="fill:none;stroke:#003359;stroke-miterlimit:10;stroke-width:4px"/></svg>