<svg id="Layer_1" data-name="Layer 1" xmlns="http://www.w3.org/2000/svg" viewBox="0 0 147.1 147.1"><title>Icons</title><g id="Filled_Icons" data-name="Filled Icons"><path d="M102.11,114.55c8.72-3.82,9.74-16.64,9.74-28.69,0-13.9-9-24.79-20.42-24.79-6.08,0-9.6,4.63-15.58,4.63s-9.51-4.63-15.59-4.63C48.81,61.07,39.85,72,39.85,85.86c0,12.06,1,24.87,9.73,28.69,6,2.62,16.08-1.25,26.17-1.24S96.07,117.19,102.11,114.55Z" style="fill:#fff;stroke:#003359;stroke-miterlimit:10;stroke-width:4px"/></g><path d="M62.46,70.56C54.88,70.56,49,77.77,49,87" style="fill:none;stroke:#003359;stroke-linecap:round;stroke-miterlimit:10;stroke-width:3px"/><path d="M38.33,49.13,50.18,54" style="fill:none;stroke:#5ac8c3;stroke-linecap:round;stroke-miterlimit:10;stroke-width:4px"/><path d="M54,41c2,2.27,6.86,7.38,8.88,9.66" style="fill:none;stroke:#5ac8c3;stroke-linecap:round;stroke-miterlimit:10;stroke-width:4px"/><path d="M75.85,36.35V49.5" style="fill:none;stroke:#5ac8c3;stroke-linecap:round;stroke-miterlimit:10;stroke-width:4px"/><path d="M97.74,41c-2,2.27-6.86,7.38-8.88,9.66" style="fill:none;stroke:#5ac8c3;stroke-linecap:round;stroke-miterlimit:10;stroke-width:4px"/><path d="M113.36,49.13,101.51,54" style="fill:none;stroke:#5ac8c3;stroke-linecap:round;stroke-miterlimit:10;stroke-width:4px"/></svg>