<svg id="Layer_1" data-name="Layer 1" xmlns="http://www.w3.org/2000/svg" viewBox="0 0 147.1 147.1"><title>Icons</title><g id="Filled_Icons" data-name="Filled Icons"><path d="M93.84,109.09c8.73-3.82,9.74-16.64,9.74-28.68,0-13.91-9-24.8-20.41-24.8-6.09,0-9.6,4.63-15.59,4.64S58.08,55.61,52,55.61c-11.45,0-20.42,10.9-20.42,24.8,0,12,1,24.87,9.74,28.68,6,2.62,16.08-1.24,26.17-1.23S87.81,111.73,93.84,109.09Z" style="fill:#fff;stroke:#003359;stroke-miterlimit:10;stroke-width:4px"/></g><path d="M54.19,65.1c-7.57,0-13.5,7.21-13.5,16.4" style="fill:none;stroke:#003359;stroke-linecap:round;stroke-miterlimit:10;stroke-width:3px"/><rect x="73.69" y="43.88" width="43.59" height="43.59" style="fill:#caece8;stroke:#003359;stroke-miterlimit:10;stroke-width:3.53488349914551px"/><line x1="77.3" y1="87.24" x2="99.38" y2="65.16" style="fill:none;stroke:#003359;stroke-linecap:round;stroke-miterlimit:10;stroke-width:3px"/><line x1="84.5" y1="87.24" x2="101.76" y2="69.98" style="fill:none;stroke:#003359;stroke-linecap:round;stroke-miterlimit:10;stroke-width:3px"/><line x1="91.7" y1="87.24" x2="103.23" y2="75.71" style="fill:none;stroke:#003359;stroke-linecap:round;stroke-miterlimit:10;stroke-width:3px"/><line x1="73.92" y1="69.01" x2="86.92" y2="56.01" style="fill:none;stroke:#003359;stroke-linecap:round;stroke-miterlimit:10;stroke-width:3px"/><line x1="73.92" y1="76.21" x2="92.1" y2="58.03" style="fill:none;stroke:#003359;stroke-linecap:round;stroke-miterlimit:10;stroke-width:3px"/><line x1="73.92" y1="83.42" x2="96.18" y2="61.16" style="fill:none;stroke:#003359;stroke-linecap:round;stroke-miterlimit:10;stroke-width:3px"/><path d="M73.69,43.88V58.71c3-1.35,5.74-3.1,9.48-3.1,11.44,0,20.41,10.89,20.41,24.8,0,2.35,0,4.72-.17,7.06h13.87V43.88Z" style="fill:#5ac8c3;stroke:#003359;stroke-miterlimit:10;stroke-width:3.53488349914551px"/></svg>