<?xml version="1.0" encoding="UTF-8"?>
<svg id="Layer_7" data-name="Layer 7" xmlns="http://www.w3.org/2000/svg" viewBox="0 0 966.62 1045.63">
  <defs>
    <style>
      .cls-1 {
        fill: #fff2d8;
      }

      .cls-2 {
        fill: #fff;
      }

      .cls-3 {
        stroke: #fff;
        stroke-width: 4px;
      }

      .cls-3, .cls-4 {
        fill: #54c45e;
        stroke-miterlimit: 10;
      }

      .cls-4 {
        stroke: #f5b681;
        stroke-width: 2px;
      }

      .cls-5 {
        fill: #fcc953;
      }
      
      .logo-container {
            max-width: 100%;
            max-height: 100%;
            display: flex;
            justify-content: center;
            align-items: center;
        }

        
        .logo-container svg {
            max-width: 100%;
            max-height: 100%;
        }
    </style>
  </defs>
  <path class="cls-5" d="M474.1,230.92s54.76-44.6,99.77-15.58c52.32,33.74,46.81,83.04,44.01,96.26,0,0,48.15-8.07,100.89,8.8,24.54,7.85,60.13,23.7,67.97,53.29,8.91,33.63-29.82,85.3-55.54,108.32-27.04,24.21-49.78,34.03-66.51,38.26,0,0,56.44,61.86,38.63,160.36-5.1,28.23-25.12,35.12-53.41,34.96-62.82-.34-131.35-33.62-152.7-72.95,0,0-20.22,65.48-122.76,102.54-48.37,17.48-66.8-8.62-73.23-24.21-12.77-30.93-11.48-84.98-8.73-110.61,4.37-40.68,20.83-58.83,20.83-58.83,0,0-42.44-2.3-81.07-38.27-23.29-21.69-42.77-43.6-56.88-73.33-6.44-13.57-12.59-41.03,17.8-61.66,38.63-26.22,114.49-44.21,140.75-41.58-5.7-18.04-3.02-70.54,33.82-99.85,55.89-44.46,106.38-5.94,106.38-5.94Z"/>
  <path class="cls-3" d="M474.65,511.43c12.5-4.2,17.1-19.47,9-29.88-26.78-34.39-70.9-112.72-113.84-127.93-36.39-12.89-104.88-.95-168.21,34.01-16.11,8.89-22.27,29.17-13.77,45.5,32.84,63.05,80.91,95.83,118.22,105.33,44.18,11.24,127.18-13.12,168.61-27.03Z"/>
  <path class="cls-3" d="M492.06,472.68c-1.5-13.11-13.81-13.01-30.32-10.68-43.14,6.09-112.15,55.36-135.95,94.23-20.17,32.94-32.51,88.75-11.5,158.02,5.34,17.62,23.88,27.87,41.61,22.94,68.45-19.04,110.49-59.28,127.53-93.83,20.17-40.91,13.62-127.23,8.63-170.67Z"/>
  <path class="cls-3" d="M484.9,456.16c-12.89-2.79-24.65,7.98-23,21.07,5.43,43.26,19.43,128.3,48.55,163.37,24.67,29.71,73.5,59.36,145.79,61.75,18.39.61,34.05-13.66,35.09-32.04,4.02-70.98-20.53-123.77-47.73-151.04-32.21-32.28-115.98-53.84-158.69-63.1Z"/>
  <path class="cls-3" d="M459.8,438.46c-7.65,10.74.14,37.44,30,50.18,40.08,17.09,125.45,32.81,169.14,19.89,37.02-10.95,87.33-42.48,114.26-109.66,6.59-16.43-.97-33.69-15.56-44.92-45.46-35.02-123.61-38.86-159.39-24.61-42.36,16.87-113.09,73.51-138.45,109.12Z"/>
  <path class="cls-4" d="M653.71,654.75s-66.2,17.54-110.72-31.73c-23.17-25.64-46.73-65.62-64.73-129.48"/>
  <path class="cls-4" d="M361.23,696.44s-39.11-55.97-8.63-114.99c15.86-30.71,44.99-66.83,98.43-106.11"/>
  <path class="cls-4" d="M220.59,434.21s37.19-51.19,103.57-51.76c34.54-.3,84.54,22.65,114.11,66.55"/>
  <path class="cls-4" d="M736.11,377.85s-13.01,70.84-76.26,90.99c-32.92,10.48-79.03,15.39-144.57,5.33"/>
  <g>
    <path class="cls-1" d="M474.34,248.14c-7.85-10.28-22.07-17.2-34.81-19.37-15.62-2.66-32.25-1.54-46.4,5.59-5.9,2.97-11.28,6.93-16.17,11.38-17.67,16.04-29.12,38.76-31.5,62.52-2.38,23.75,4.32,48.3,18.45,67.54,0,0,39.5,44.3,48.67,53.71,16.52,16.94,61.14,49.42,61.14,49.42-18.56-13.67-15.62-36.14-6.55-45.89,7.58-8.15,18.81-10.59,30.91-6.89,16.39,5.01,18.81,30.53,3.36,34.12,40.65,8.74,74.77-77.13,92.6-114.21,5.32-11.06,9.93-22.56,12.15-34.62,3.07-16.69,1.37-34.32-5.37-49.89-6.74-15.57-18.59-28.98-33.48-37.1-5.33-2.9-11.05-5.14-17.02-6.18-5.77-1-11.69-.87-17.51-.18-28.53,3.35-55.11,20.58-69.84,45.26"/>
    <path class="cls-2" d="M475.63,247.38c-10.36-13.42-27.5-19.72-43.91-21.11-9.24-.78-18.7-.17-27.66,2.3s-17.23,7.03-24.49,12.94c-13.42,10.92-23.64,25.61-29.75,41.76s-7.85,34.44-4.8,51.81c1.55,8.84,4.31,17.46,8.14,25.57,1.91,4.06,4.11,7.99,6.57,11.75,1.08,1.64,2.14,3.34,3.44,4.82,4.91,5.6,9.92,11.1,14.89,16.64,7.7,8.58,15.41,17.15,23.18,25.66,5.97,6.53,11.94,12.97,18.56,18.85,9.78,8.68,20.08,16.79,30.44,24.77,7.14,5.5,14.34,10.93,21.61,16.26.37.27.74.54,1.11.81,1.57,1.14,3.04-1.45,1.51-2.59-7.37-5.49-12.36-13.71-12.89-22.97-.41-7.08,1.54-14.83,6.33-20.22,7.12-8,18.05-9.94,28.11-7.31,3.85,1.01,7.14,2.83,9.72,5.91,2.18,2.6,3.58,5.82,4.21,9.14,1.34,7.03-1.42,14.84-8.93,16.65-1.4.34-1.46,2.59,0,2.89,8.81,1.86,17.54-.6,25.04-5.34,8.91-5.63,16.09-13.72,22.4-22.05,7.4-9.78,13.71-20.36,19.55-31.12,5.84-10.78,11.18-21.82,16.37-32.92,2.26-4.84,4.49-9.7,6.74-14.55,2.51-5.42,5.17-10.77,7.57-16.24,3.65-8.33,6.76-16.93,8.58-25.85s2.31-17.48,1.53-26.24c-1.49-16.66-7.7-32.63-18.33-45.59-10.12-12.36-24.88-22.82-40.95-25.18-8.54-1.25-17.34-.38-25.74,1.44-7.35,1.6-14.5,4.12-21.27,7.39-13.5,6.52-25.49,16.18-34.65,28.04-2.24,2.91-4.32,5.93-6.2,9.08-.99,1.66,1.6,3.17,2.59,1.51,7.52-12.55,18.09-23.15,30.48-30.91,12.56-7.86,27.03-12.91,41.84-13.97,9.08-.65,17.85.73,26.13,4.57,6.99,3.24,13.4,7.68,18.99,12.98,11.5,10.9,19.29,25.2,22.6,40.66,1.79,8.39,2.26,17.05,1.52,25.59-.77,8.8-2.98,17.41-6,25.7-4.21,11.56-9.94,22.6-15.11,33.76-4.85,10.47-9.76,20.92-15.05,31.18-5.56,10.79-11.5,21.41-18.3,31.47-6,8.87-12.72,17.49-20.97,24.38-6.42,5.36-14.26,9.77-22.82,9.87-1.93.02-3.85-.17-5.74-.56v2.89c7.71-1.86,11.73-9.17,11.45-16.75s-4.79-15.84-12.12-19.23c-5.06-2.34-11.21-3.17-16.74-2.64s-10.89,2.57-15.3,6.09c-6.74,5.37-10.2,13.78-10.55,22.27-.48,11.56,5.24,21.95,14.4,28.76l1.51-2.59c-5.11-3.72-10.16-7.51-15.2-11.33-10.06-7.62-20.02-15.38-29.7-23.48-7.29-6.1-14.24-12.47-20.71-19.44-7.22-7.78-14.32-15.67-21.42-23.56-6.44-7.15-12.86-14.31-19.27-21.49-1.16-1.3-2.46-2.55-3.47-3.97-5.1-7.17-9.27-14.94-12.28-23.21-5.98-16.44-7.59-34.45-4.15-51.63s10.88-32.01,21.88-44.67c5.78-6.65,12.47-12.67,20.06-17.17s16.72-7.36,25.78-8.3c16.88-1.75,34.92,1.4,48.8,11.59,3.07,2.25,5.92,4.91,8.25,7.93.5.65,1.28.98,2.05.54.63-.36,1.03-1.41.54-2.05h0Z"/>
  </g>
</svg>